# xmcd
#
# Track frame offsets:
#	182
#	12192
#	25245
#	43685
#	55902
#	71665
#	87042
#	100040
#	121470
#	134892
#	147872
#	163165
#	183107
#	197735
#	218970
#	238232
#
# Disc length: 3317 seconds
#
# Revision: 6
# Processed by: cddbd v1.5.2PL0 Copyright (c) Steve Scherf et al.
# Submitted via: audiograbber 1.83.01
#
DISCID=e80cf310
DTITLE=England Dan and John Ford Coley - The Very Best Of
DYEAR=1996
DGENRE=Oldies
TTITLE0=I'd Really Love To See You Tonight
TTITLE1=Nights Are Forever Without You
TTITLE2=Lady
TTITLE3=Showboat Gambler
TTITLE4=The Prisoner
TTITLE5=Westward Wind
TTITLE6=It's Sad To Belong
TTITLE7=Soldier In The Rain
TTITLE8=Gone Too Far
TTITLE9=We'll Never Have To Say Goodbye Again
TTITLE10=Who's Lonely Now
TTITLE11=Some Things Don't Come Easy
TTITLE12=What Can I Do With This Broken Heart
TTITLE13=Love Is The Answer
TTITLE14=Why Is It Me
TTITLE15=Part Of Me Part Of You
EXTD=
EXTT0=
EXTT1=
EXTT2=
EXTT3=
EXTT4=
EXTT5=
EXTT6=
EXTT7=
EXTT8=
EXTT9=
EXTT10=
EXTT11=
EXTT12=
EXTT13=
EXTT14=
EXTT15=
PLAYORDER=
